<svg width="28px" height="31px" viewBox="0 0 28 31" version="1.1" xmlns="http://www.w3.org/2000/svg" xmlns:xlink="http://www.w3.org/1999/xlink">
  <title>Funded Logo Icon</title>
    <g id="Symbols" stroke="none" stroke-width="1" fill="none" fill-rule="evenodd">
      <g id="logo-icon">
        <path d="M0.20163201,9.10445297 L0.20163201,21.6202573 C0.151241264,23.1145374 1.0267517,23.772767 1.62292714,24.0764788 L12.519063,30.3537143 C13.3780066,30.8485105 14.435752,30.8485105 15.2946957,30.3537143 L26.1908315,24.0764788 C27.251108,23.4557917 27.6296138,22.7080896 27.6121266,21.6202573 L27.6121266,9.10445297 C27.6201799,8.21354999 27.4446176,7.43954571 26.1908315,6.64823143 L15.2946957,0.370996011 C14.435752,-0.123575415 13.3780066,-0.123575415 12.519063,0.370996011 L1.62292714,6.64823143 C0.743274998,7.15494233 0.20163201,8.09125596 0.20163201,9.10445297" id="bg-lightgreen" fill="#D9F7EE"></path>
          <path d="M3.30724355,9.90619821 L3.30724355,20.7035916 C3.30724355,20.9895439 3.40664448,21.3588988 3.80401807,21.6212464 L13.4431464,27.0583849 C13.7296143,27.2200198 14.0825796,27.2200198 14.3690476,27.0583849 L24.0419998,21.602138 C24.3284678,21.4405031 24.5049504,21.1419618 24.5049504,20.8186919 L24.5049504,9.96105068 C24.5049504,9.59371899 24.263581,9.25044146 24.0217515,9.11128705 L14.3690476,3.66650526 C14.0825796,3.50487033 13.7296143,3.50487033 13.4431464,3.66650526 L3.77042424,9.12275211 C3.4839563,9.28416224 3.30724355,9.58292834 3.30724355,9.90619821" id="bg-white" fill="#FEFEFE"></path>
          <path d="M3.83000012,22.2725889 C3.83000012,23.2516156 3.01745095,24.0454027 2.01500006,24.0454027 C1.01277936,24.0454027 0.200000003,23.2516156 0.200000003,22.2725889 C0.200000003,21.2937871 1.01277936,20.5 2.01500006,20.5 C3.01745095,20.5 3.83000012,21.2937871 3.83000012,22.2725889" id="circle-bottom" fill="#1774FF"></path>
          <path d="M27.5988233,8.52258895 C27.5988233,9.50139076 26.7865889,10.2951779 25.7842962,10.2951779 C24.7824638,10.2951779 23.9699993,9.50139076 23.9699993,8.52258895 C23.9699993,7.54378714 24.7824638,6.75 25.7842962,6.75 C26.7865889,6.75 27.5988233,7.54378714 27.5988233,8.52258895" id="circle-top" fill="#1774FF"></path>
          <path d="M26.7530679,23.7452284 C26.3950405,24.0496146 25.8961952,24.3052181 25.8961952,24.3052181 L14.5987741,30.6764221 C14.5348078,30.712391 14.3702901,30.7290265 14.2179674,30.7371195 C14.0534496,30.7456621 13.9151627,30.617748 13.9160831,30.4565626 C13.9193044,29.9889678 13.9222956,29.0872742 13.906189,28.8112134 C13.8378509,27.657738 14.2858453,26.8936251 14.8123021,26.5692312 C15.4126192,26.1996515 27.6092504,19.2493493 27.6092504,19.2493493 C27.6092504,19.2493493 27.6099407,20.7078854 27.6099407,21.4794169 C27.6099407,21.9249807 27.6449151,22.170468 27.4677422,22.724388 C27.3444114,23.1106033 27.0351641,23.5145783 26.7530679,23.7452284" id="bar-bottom" fill="#00CA89"></path>
          <path d="M1.05931011,7.00809958 C1.41710741,6.70348854 1.91595278,6.44810984 1.91595278,6.44810984 L13.2133738,0.0769058567 C13.2773401,0.0409370257 13.442088,0.0243014414 13.5941806,0.0164332596 C13.7586983,0.00789066229 13.8972153,0.135580012 13.8960649,0.296765336 C13.8930736,0.764360138 13.8898523,1.66627857 13.906189,1.94211455 C13.9745272,3.09558999 13.5265327,3.85992765 12.9998459,4.18409674 C12.3997588,4.55390128 0.202897531,11.5039786 0.202897531,11.5039786 C0.202897531,11.5039786 0.202437341,10.0454425 0.202437341,9.27391112 C0.202437341,8.82834723 0.167232848,8.58285996 0.344405788,8.02916477 C0.467736562,7.64294945 0.776983875,7.23897451 1.05931011,7.00809958" id="bar-top" fill="#00CA89"></path>
          <path d="M16.6021629,11.7925611 L12.9178861,11.8033517 C12.7844312,11.8038013 12.6765168,11.9094598 12.6765168,12.0398468 L12.6765168,13.9585591 C12.6765168,14.0889461 12.7848914,14.1948294 12.9183463,14.1948294 L15.9590482,14.1948294 C16.1728062,14.1948294 16.3460675,14.3641077 16.3460675,14.5729517 L16.3460675,15.5636682 C16.3460675,16.1578283 15.7899285,16.3626258 15.3953161,16.3626258 L12.9183463,16.3626258 C12.7848914,16.3626258 12.6765168,16.4685091 12.6765168,16.5988961 L12.6765168,20.9261713 C12.6765168,21.1354649 12.5025652,21.304968 12.2881169,21.3042936 L10.6726218,21.2988983 C10.4595541,21.2982239 10.2872131,21.1289456 10.2872131,20.9207759 L10.2872131,9.83608147 C10.2872131,9.62813667 10.4613948,9.45795914 10.6740024,9.45795914 L17.1537,9.45795914 C17.3665376,9.45795914 17.5407193,9.62813667 17.5407193,9.83608147 L17.5407193,10.9587586 C17.5407193,11.459175 17.1143538,11.7925611 16.6021629,11.7925611" id="F" fill="#080706"></path>
      </g>
    </g>
</svg>